<?xml version="1.0" standalone="no"?>
<!DOCTYPE svg PUBLIC "-//W3C//DTD SVG 20010904//EN"
 "http://www.w3.org/TR/2001/REC-SVG-20010904/DTD/svg10.dtd">
<svg version="1.0" xmlns="http://www.w3.org/2000/svg"
 width="129.000000pt" height="129.000000pt" viewBox="0 0 129.000000 129.000000"
 preserveAspectRatio="xMidYMid meet">
<metadata>
Created by potrace 1.11, written by Peter Selinger 2001-2013
</metadata>
<g transform="translate(0.000000,129.000000) scale(0.100000,-0.100000)"
fill="#000000" stroke="none">
<path d="M486 1270 c-120 -32 -210 -84 -295 -169 -42 -42 -85 -94 -96 -116
-11 -22 -23 -42 -26 -45 -4 -3 -19 -41 -34 -85 -23 -66 -28 -98 -29 -185 -1
-123 7 -173 40 -254 38 -95 72 -144 150 -221 52 -52 96 -85 154 -114 44 -22
82 -41 85 -41 3 0 6 0 8 -1 1 0 9 -2 17 -4 8 -2 29 -6 45 -10 61 -14 212 -14
276 1 233 54 432 252 485 485 14 60 13 217 -2 279 -27 116 -86 221 -172 308
-96 96 -178 142 -322 179 -8 2 -60 6 -115 8 -74 2 -118 -2 -169 -15z"/>
</g>
</svg>
